<svg width="35" height="33" viewBox="0 0 35 33" fill="none" xmlns="http://www.w3.org/2000/svg">
<g id="Frame" clip-path="url(#clip0_2133_828)">
<g id="Group">
<g id="_x3C_Layer_x3E_">
<g id="Group_2">
<path id="Vector" d="M34.7551 14.4187C33.9699 11.1184 34.4096 8.52953 34.4138 8.50356L34.4658 8.2094L34.3063 7.95571C34.116 7.65491 29.8776 1.1635 19.2686 0.0702174C19.1411 -0.0234058 15.8595 -0.0234058 15.7321 0.0702174C5.12242 1.1635 0.884612 7.65491 0.694345 7.95571L0.534884 8.2094L0.586829 8.50356C0.591058 8.52953 1.03078 11.1178 0.245557 14.4187C-0.626649 18.0864 1.10387 24.434 1.17817 24.7028C1.27239 25.0453 1.58286 25.27 1.92232 25.27C1.98997 25.27 2.05943 25.2609 2.12829 25.2422C2.53903 25.1292 2.78063 24.704 2.66708 24.2927C2.65017 24.2311 0.967967 18.058 1.74836 14.7763C2.45265 11.8172 2.26178 9.41261 2.15547 8.56094C3.02103 7.38914 7.58139 1.95537 17.5012 1.49994C27.4211 1.95537 31.9814 7.38914 32.847 8.56094C32.7407 9.41261 32.5498 11.8172 33.2541 14.7763C34.0339 18.058 32.3523 24.2311 32.3354 24.2927C32.2218 24.7034 32.4634 25.1286 32.8742 25.2422C32.943 25.2609 33.0119 25.27 33.0801 25.27C33.419 25.27 33.7301 25.0453 33.8243 24.7028C33.8986 24.4346 35.6291 18.0864 34.7569 14.4187H34.7551Z" fill="#7D5151"/>
<g id="Group_3" opacity="0.3">
<path id="Vector_2" d="M33.2781 24.833C33.2104 24.833 33.1416 24.824 33.0721 24.8052C32.6614 24.6923 32.4198 24.2671 32.5333 23.8557C32.5502 23.7941 34.2324 17.621 33.452 14.3394C32.7477 11.3803 32.9386 8.97566 33.0449 8.12399C32.1794 6.95219 27.619 1.51842 17.6992 1.06299C7.78053 1.51902 3.22017 6.9528 2.354 8.1246C2.35944 8.16688 2.36488 8.2303 2.37092 8.28044C3.63453 6.70454 8.22267 1.92553 17.4998 1.49909C27.4197 1.95452 31.98 7.3883 32.8456 8.5601C32.7393 9.41177 32.5484 11.8164 33.2527 14.7755C34.0325 18.0571 32.3509 24.2302 32.334 24.2918C32.2204 24.7026 32.462 25.1278 32.8728 25.2413C32.9416 25.2601 33.0105 25.2691 33.0787 25.2691C33.4176 25.2691 33.7287 25.0444 33.8229 24.702C33.8283 24.6832 33.8428 24.6277 33.8634 24.5522C33.7184 24.7243 33.5082 24.8324 33.2793 24.8324L33.2781 24.833Z" fill="#1A1111"/>
<path id="Vector_3" d="M2.32725 24.8054C2.25839 24.8241 2.18953 24.8332 2.12127 24.8332C1.78242 24.8332 1.47135 24.6085 1.37712 24.266C1.30283 23.9978 -0.427695 17.6496 0.444512 13.9819C1.22974 10.6816 0.790012 8.09274 0.785784 8.06677L0.750751 7.86865C0.727798 7.90369 0.701825 7.94234 0.693368 7.95503L0.533907 8.20872L0.585853 8.50287C0.590081 8.52885 1.02981 11.1171 0.244581 14.4181C-0.627625 18.0857 1.10289 24.4333 1.17719 24.7021C1.27142 25.0446 1.58188 25.2693 1.92134 25.2693C1.98899 25.2693 2.05846 25.2602 2.12731 25.2415C2.44563 25.1539 2.65644 24.8785 2.68543 24.568C2.58999 24.6743 2.47523 24.7643 2.32725 24.8054Z" fill="#1A1111"/>
</g>
<g id="Group_4" opacity="0.3">
<path id="Vector_4" d="M1.74732 14.7763C2.44798 11.8317 2.26255 9.4392 2.15564 8.57666C2.09765 8.65035 2.04027 8.72404 1.9998 8.77901C2.10611 9.63068 2.29698 12.0353 1.59269 14.9944C0.812293 18.276 2.49449 24.4491 2.5114 24.5107C2.56214 24.6938 2.53315 24.8756 2.45946 25.035C2.64852 24.8454 2.74214 24.5693 2.66603 24.2927C2.64912 24.2311 0.966922 18.058 1.74732 14.7763Z" fill="#FFA5A5"/>
<path id="Vector_5" d="M34.7552 14.4187C33.97 11.1184 34.4097 8.52953 34.414 8.50356L34.4659 8.2094L34.3065 7.95571C34.1162 7.65491 29.8778 1.1635 19.2688 0.0702174C19.1413 -0.0234058 15.8597 -0.0234058 15.7322 0.0702174C5.62392 1.11155 1.30819 7.04122 0.757324 7.86028C1.73463 6.51573 6.11982 1.26255 15.5776 0.288269C15.705 0.194646 18.9867 0.194646 19.1141 0.288269C29.7232 1.38155 33.9616 7.87296 34.1518 8.17376L34.3113 8.42745L34.2593 8.72161C34.2551 8.74758 33.8154 11.3358 34.6006 14.6368C35.4728 18.3044 33.7423 24.6521 33.668 24.9208C33.6559 24.9655 33.6306 25.0024 33.6112 25.0429C33.7061 24.9504 33.7852 24.8399 33.8226 24.7028C33.8969 24.4346 35.6275 18.0864 34.7552 14.4187Z" fill="#FFA5A5"/>
</g>
<g id="Group_5">
<path id="Vector_6" d="M7.66117 16.8242C2.04377 19.3629 1.92236 23.3573 1.92236 25.2872C1.92236 28.503 7.66117 31.8879 7.66117 31.8879V16.8242Z" fill="#DE9843"/>
<path id="Vector_7" opacity="0.5" d="M1.92478 24.9058C1.92236 25.0399 1.92236 25.1673 1.92236 25.2869C1.92236 28.5027 7.66117 31.8876 7.66117 31.8876V31.4817C7.66117 31.4817 1.95498 28.1143 1.92478 24.9064V24.9058Z" fill="#FFAF4D"/>
<path id="Vector_8" opacity="0.4" d="M1.92236 25.2872C1.92236 25.4484 1.94652 25.6097 1.97431 25.7716C2.17062 23.6762 3.11832 20.6718 7.66177 18.6182V16.8242C2.04438 19.3629 1.92297 23.3573 1.92297 25.2872H1.92236Z" fill="#FFAF4D"/>
<g id="Vector_9" style="mix-blend-mode:multiply" opacity="0.3">
<path d="M3.45416 22.071C3.45416 21.4663 3.46624 20.6588 3.6559 19.7563C1.98579 21.8239 1.92236 24.0081 1.92236 25.2868C1.92236 28.5026 7.66117 31.8875 7.66117 31.8875V27.64C5.96085 26.3933 3.45416 24.1983 3.45416 22.0704V22.071Z" fill="#DE9843"/>
</g>
<g id="Vector_10" style="mix-blend-mode:multiply" opacity="0.5">
<path d="M7.66132 31.8879V16.8242C6.97153 17.1359 6.3669 17.4699 5.83355 17.819C5.82751 17.871 5.81543 17.9217 5.81543 17.9755V30.6237C6.83804 31.4017 7.66192 31.8879 7.66192 31.8879H7.66132Z" fill="#DE9843"/>
</g>
<path id="Vector_11" d="M10.125 16.3838H6.61137C6.562 16.3838 6.52197 16.4238 6.52197 16.4732V32.2381C6.52197 32.2875 6.562 32.3275 6.61137 32.3275H10.125C10.1743 32.3275 10.2144 32.2875 10.2144 32.2381V16.4732C10.2144 16.4238 10.1743 16.3838 10.125 16.3838Z" fill="#7D5151"/>
<path id="Vector_12" opacity="0.3" d="M8.36809 16.3838C8.08541 16.3838 7.82085 16.443 7.58105 16.5408C7.64025 16.536 7.69824 16.5251 7.75924 16.5251C8.77883 16.5251 9.60573 17.2373 9.60573 18.1161V30.8779C9.60573 31.5133 9.17084 32.0569 8.54628 32.3118C9.48131 32.2333 10.2146 31.5622 10.2146 30.7365V17.9748C10.2146 17.0959 9.38768 16.3838 8.36809 16.3838Z" fill="#FFA5A5"/>
<g id="Vector_13" style="mix-blend-mode:multiply" opacity="0.3">
<path d="M9.15369 31.126C8.1341 31.126 7.3072 30.4139 7.3072 29.5351V16.7733C7.3072 16.7371 7.31686 16.7026 7.31988 16.667C6.83848 16.9539 6.52197 17.4323 6.52197 17.9753V30.7371C6.52197 31.6159 7.34888 32.3281 8.36846 32.3281C9.38805 32.3281 10.1376 31.6715 10.2023 30.8434C9.90449 31.0209 9.54389 31.1267 9.1543 31.1267L9.15369 31.126Z" fill="#7D5151"/>
</g>
</g>
<g id="Group_6">
<path id="Vector_14" d="M27.6558 16.8242C33.2732 19.3629 33.3946 23.3573 33.3946 25.2872C33.3946 28.503 27.6558 31.8879 27.6558 31.8879V16.8242Z" fill="#DE9843"/>
<path id="Vector_15" opacity="0.5" d="M33.3922 24.9058C33.3946 25.0399 33.3946 25.1673 33.3946 25.2869C33.3946 28.5027 27.6558 31.8876 27.6558 31.8876V31.4817C27.6558 31.4817 33.362 28.1143 33.3922 24.9064V24.9058Z" fill="#FFAF4D"/>
<path id="Vector_16" opacity="0.4" d="M33.3947 25.2872C33.3947 25.4484 33.3705 25.6097 33.3427 25.7716C33.1464 23.6762 32.1993 20.6718 27.6553 18.6182V16.8242C33.2727 19.3629 33.3941 23.3573 33.3941 25.2872H33.3947Z" fill="#FFAF4D"/>
<g id="Vector_17" style="mix-blend-mode:multiply" opacity="0.3">
<path d="M31.8628 22.071C31.8628 21.4663 31.8507 20.6588 31.661 19.7563C33.3311 21.8239 33.3946 24.0081 33.3946 25.2868C33.3946 28.5026 27.6558 31.8875 27.6558 31.8875V27.64C29.3561 26.3933 31.8628 24.1983 31.8628 22.0704V22.071Z" fill="#DE9843"/>
</g>
<g id="Vector_18" style="mix-blend-mode:multiply" opacity="0.5">
<path d="M27.6558 31.8879V16.8242C28.3449 17.1359 28.9502 17.4699 29.4841 17.819C29.4902 17.871 29.5023 17.9217 29.5023 17.9755V30.6237C28.4796 31.4017 27.6558 31.8879 27.6558 31.8879Z" fill="#DE9843"/>
</g>
<path id="Vector_19" d="M25.1919 32.3281H28.7055C28.7549 32.3281 28.7949 32.2881 28.7949 32.2387L28.7949 16.4738C28.7949 16.4244 28.7549 16.3844 28.7055 16.3844H25.1919C25.1426 16.3844 25.1025 16.4244 25.1025 16.4738V32.2387C25.1025 32.2881 25.1426 32.3281 25.1919 32.3281Z" fill="#7D5151"/>
<path id="Vector_20" opacity="0.3" d="M26.949 16.3838C27.2317 16.3838 27.4963 16.443 27.7361 16.5408C27.6763 16.536 27.6189 16.5251 27.5579 16.5251C26.5383 16.5251 25.7114 17.2373 25.7114 18.1161V30.8779C25.7114 31.5133 26.1463 32.0569 26.7708 32.3118C25.8358 32.2333 25.1025 31.5622 25.1025 30.7365V17.9748C25.1025 17.0959 25.9294 16.3838 26.949 16.3838Z" fill="#FFA5A5"/>
<g id="Vector_21" style="mix-blend-mode:multiply" opacity="0.3">
<path d="M26.1633 31.126C27.1829 31.126 28.0098 30.4139 28.0098 29.5351V16.7733C28.0098 16.7371 28.0002 16.7026 27.9971 16.667C28.4785 16.9539 28.795 17.4323 28.795 17.9753V30.7371C28.795 31.6159 27.9681 32.3281 26.9486 32.3281C25.929 32.3281 25.1794 31.6715 25.1147 30.8434C25.4125 31.0209 25.7731 31.1267 26.1627 31.1267L26.1633 31.126Z" fill="#7D5151"/>
</g>
</g>
</g>
</g>
</g>
</g>
<defs>
<clipPath id="clip0_2133_828">
<rect width="35" height="32.3278" fill="white"/>
</clipPath>
</defs>
</svg>
