<svg width="38" height="21" viewBox="0 0 38 21" fill="none" xmlns="http://www.w3.org/2000/svg">
<g clip-path="url(#clip0_2133_623)">
<path d="M21.2935 13.3661L7.27348 18.518L2.63525 5.58957L16.5152 0.433746C20.084 -0.891813 24.0518 0.926363 25.3779 4.49514C26.7069 8.07272 24.8759 12.0494 21.2935 13.3661Z" fill="#E89C66"/>
<path opacity="0.4" d="M21.082 12.796L7.06836 17.9454L7.27353 18.5174L21.2935 13.3655C24.876 12.0487 26.7069 8.07253 25.3779 4.49445C25.3422 4.39798 25.2971 4.30837 25.2575 4.21484C26.3866 7.71506 24.568 11.5145 21.082 12.7955V12.796Z" fill="#FFAB70"/>
<path opacity="0.3" d="M3.78076 5.69873L4.90066 8.82043L18.4109 3.85607C19.6512 3.40018 20.6702 2.61278 21.4121 1.63244C21.7289 1.21377 21.5003 0.58747 20.9885 0.469947C19.7683 0.189361 18.4564 0.247143 17.1945 0.715765L3.78076 5.69873Z" fill="#FFBC70"/>
<path opacity="0.3" d="M16.4615 0.496443L2.58154 5.65226L2.87339 6.46562L16.0423 1.57374C19.6111 0.248177 23.5789 2.06635 24.905 5.63513C25.4461 7.09143 25.4559 8.6109 25.045 9.99326C25.8491 8.3548 26.0102 6.40441 25.3242 4.55783C23.9986 0.98906 20.0307 -0.829605 16.462 0.496443H16.4615Z" fill="#FFAB70"/>
<g style="mix-blend-mode:multiply" opacity="0.2">
<path d="M20.3239 9.56209L6.30392 14.714L2.98439 5.46006L2.63525 5.58983L7.27348 18.5183L21.2935 13.3664C24.8759 12.0497 26.7069 8.07347 25.3779 4.49539C25.23 4.0968 25.0444 3.72415 24.8348 3.37109C24.7241 6.07216 23.021 8.57099 20.3244 9.56209H20.3239Z" fill="#E89C66"/>
</g>
<path d="M9.4072 10.4209C10.7141 13.9819 9.8009 17.5928 7.36769 18.4854C4.93448 19.3781 1.90288 17.2152 0.595929 13.6538C-0.710532 10.0928 0.202718 6.48196 2.63544 5.58928C5.06865 4.6966 8.10025 6.8595 9.4072 10.4209Z" fill="#E8955A"/>
<path opacity="0.3" d="M7.6555 15.0339C5.22229 15.9266 2.1907 13.7637 0.883745 10.2023C0.625684 9.49957 0.457725 8.7959 0.367134 8.11035C-0.171022 9.6499 -0.136255 11.6595 0.595814 13.6545C1.90277 17.2154 4.93436 19.3788 7.36757 18.4861C9.32041 17.7697 10.291 15.3008 9.92369 12.5135C9.5011 13.7226 8.72594 14.6417 7.6555 15.0344V15.0339Z" fill="#FFB078"/>
<g style="mix-blend-mode:multiply" opacity="0.1">
<path d="M2.63592 5.58928C0.996478 6.19109 0.0513994 8.02836 0.00585938 10.251C0.452935 9.45725 1.08854 8.85641 1.89651 8.56016C4.32972 7.66747 7.36131 9.83038 8.66826 13.3918C9.09428 14.5533 9.28085 15.7183 9.25882 16.7946C10.1584 15.1963 10.2808 12.7998 9.40768 10.4209C8.10073 6.8595 5.06913 4.6966 2.63592 5.58928Z" fill="#E89C66"/>
</g>
<path opacity="0.3" d="M2.52522 5.99424C4.95844 5.10156 7.99003 7.26447 9.29698 10.8259C9.9321 12.5569 10.0388 14.2967 9.70537 15.7334C10.1637 14.2262 10.1035 12.3189 9.40716 10.4209C8.10021 6.8595 5.06861 4.6966 2.6354 5.58928C1.38476 6.04811 0.53958 7.22774 0.187012 8.74672C0.589037 7.42557 1.38819 6.41145 2.52474 5.99424H2.52522Z" fill="#FFB078"/>
<path opacity="0.3" d="M7.43011 18.0515C4.9969 18.9442 1.9653 16.7813 0.658353 13.2198C0.13097 11.7836 -0.0291546 10.342 0.120197 9.0708C-0.12709 10.4414 0.00757119 12.052 0.595675 13.6547C1.90263 17.2156 4.93422 19.379 7.36743 18.4863C8.81933 17.9536 9.72425 16.4502 9.9451 14.5709C9.64297 16.2456 8.76791 17.5613 7.43011 18.052V18.0515Z" fill="#FFB078"/>
<path d="M31.0826 20.3572L16.1465 20.3048L16.3007 6.57031H31.1071C34.9144 6.57031 38.0008 9.65675 38.0008 13.464C38.0008 17.2806 34.8997 20.3709 31.0831 20.3572H31.0826Z" fill="#E89C66"/>
<path opacity="0.4" d="M31.0826 19.7493L16.1533 19.6969L16.1465 20.3046L31.0826 20.357C34.8992 20.3702 38.0003 17.2803 38.0003 13.4638C38.0003 13.3609 37.9896 13.261 37.9851 13.1597C37.8245 16.8342 34.7969 19.7625 31.0826 19.7493Z" fill="#FFAB70"/>
<path opacity="0.3" d="M17.3356 7.07129L17.2983 10.3879L31.6914 10.4383C33.0126 10.4427 34.2427 10.0598 35.2793 9.39873C35.722 9.11667 35.7259 8.45022 35.2872 8.1618C34.2407 7.4738 32.9911 7.07129 31.6449 7.07129H17.3356Z" fill="#FFBC70"/>
<path opacity="0.3" d="M31.034 6.61035H16.2276L16.2178 7.47414H30.2657C34.0729 7.47414 37.1593 10.5606 37.1593 14.3678C37.1593 15.9211 36.6393 17.3495 35.7726 18.5017C37.0967 17.2457 37.9272 15.4735 37.9272 13.504C37.9272 9.69679 34.8407 6.61035 31.0335 6.61035H31.034Z" fill="#FFAB70"/>
<g style="mix-blend-mode:multiply" opacity="0.2">
<path d="M31.4984 16.4535L16.5622 16.4011L16.6724 6.57031H16.3002L16.146 20.3048L31.0822 20.3572C34.8987 20.3704 37.9998 17.2806 37.9998 13.464C37.9998 13.039 37.9558 12.6247 37.8823 12.2207C36.8378 14.7141 34.3713 16.4638 31.4984 16.4535Z" fill="#E89C66"/>
</g>
<path d="M20.9658 13.4577C20.9506 17.2512 18.8372 20.3176 16.2458 20.3073C13.6539 20.297 11.5655 17.2135 11.5806 13.42C11.5958 9.62642 13.7093 6.56006 16.3007 6.57034C18.8925 6.58062 20.981 9.66413 20.9658 13.4577Z" fill="#E8955A"/>
<path opacity="0.3" d="M17.7173 17.1713C15.1254 17.161 13.037 14.0775 13.0521 10.2839C13.0551 9.53522 13.1427 8.81686 13.2965 8.14307C12.2559 9.39909 11.589 11.2946 11.5802 13.4198C11.565 17.2134 13.6539 20.2969 16.2458 20.3072C18.326 20.3155 20.0952 18.3391 20.7215 15.5984C19.9042 16.5846 18.8578 17.1762 17.7173 17.1718V17.1713Z" fill="#FFB078"/>
<g style="mix-blend-mode:multiply" opacity="0.1">
<path d="M16.3002 6.57034C14.554 6.56348 13.0277 7.95662 12.2114 10.0245C12.9073 9.43593 13.7123 9.09463 14.5727 9.09806C17.1645 9.10834 19.253 12.1918 19.2378 15.9854C19.2329 17.2228 19.0018 18.3794 18.6066 19.3808C20.0066 18.1958 20.9556 15.9917 20.9659 13.4577C20.9811 9.66412 18.8921 6.58062 16.3007 6.57034H16.3002Z" fill="#E89C66"/>
</g>
<path opacity="0.3" d="M16.0554 6.91164C18.6472 6.92193 20.7357 10.0054 20.7205 13.799C20.7132 15.6426 20.2074 17.3109 19.395 18.5415C20.3498 17.2884 20.957 15.4791 20.9654 13.4577C20.9806 9.66413 18.8916 6.58062 16.3002 6.57034C14.9683 6.56495 13.7651 7.37635 12.9058 8.67742C13.7426 7.57908 14.8449 6.90675 16.0559 6.91164H16.0554Z" fill="#FFB078"/>
<path opacity="0.3" d="M16.4554 19.9219C13.8635 19.9116 11.7751 16.8281 11.7902 13.0346C11.7961 11.5043 12.1482 10.097 12.7309 8.95752C12.0218 10.1563 11.5875 11.7129 11.5806 13.42C11.5655 17.2135 13.6544 20.297 16.2463 20.3073C17.7927 20.3132 19.1643 19.2192 20.0261 17.5342C19.1594 18.9989 17.8813 19.9278 16.4559 19.9219H16.4554Z" fill="#FFB078"/>
</g>
<defs>
<clipPath id="clip0_2133_623">
<rect width="38" height="20.3569" fill="white"/>
</clipPath>
</defs>
</svg>
