<svg width="42" height="42" viewBox="0 0 42 42" fill="none" xmlns="http://www.w3.org/2000/svg">
<circle cx="21.0006" cy="21.0001" r="16.1304" fill="#44AFD2" fill-opacity="0.2"/>
<path d="M18.3426 23.9201C18.7206 24.4745 19.3254 25.0415 20.2452 25.0415C21.3414 25.0415 21.8832 24.4871 21.8832 23.5169C21.8832 22.7357 21.2028 22.3703 20.4468 22.3703H19.905L20.1066 21.1733H20.787C21.6186 21.1733 22.2486 20.6567 22.2486 19.7747C22.2486 19.1825 21.8454 18.7919 21.0894 18.7919C20.3586 18.7919 19.716 19.1195 19.275 19.6361L18.5946 18.7163C19.0482 18.2249 20.1444 17.4437 21.4422 17.4437C22.8534 17.4437 23.8614 18.1745 23.8614 19.4219C23.8614 20.6567 22.866 21.4883 22.236 21.7151L22.2234 21.7529C22.803 21.9041 23.496 22.4207 23.496 23.4413C23.496 25.2683 21.8202 26.4023 19.968 26.4023C18.4056 26.4023 17.4984 25.2557 17.3346 24.9533L18.3426 23.9201Z" fill="#0B66B0"/>
</svg>
