<svg width="38" height="44" fill="none" xmlns="http://www.w3.org/2000/svg"><g clip-path="url(#clip0_2133_733)"><path d="M3.15468 40.5921C1.67601 39.511 0.878675 38.3091 0.457965 37.2357C-0.671146 34.348 0.310253 30.8354 3.15159 27.5957C6.70288 23.5472 13.4482 19.958 20.7178 20.5767C20.6714 17.9875 20.7394 15.2327 21.0372 12.3813L21.9134 12.4734C21.6226 15.2513 21.5507 17.8939 21.5917 20.3988C25.0579 18.644 28.1513 16.8599 29.8071 15.0696L30.4544 15.6681C28.8211 17.4345 25.931 19.1576 22.6605 20.8427C22.9984 20.9069 23.3356 20.9804 23.6736 21.0639C27.1437 21.9216 28.2372 24.0893 28.5434 25.7574C29.2433 29.5601 26.5814 34.5367 22.1949 37.6789C21.9528 39.5048 21.3991 40.9595 20.3141 42.0097C18.7774 43.4984 16.3289 44.0096 12.6106 43.6183C7.9681 43.1295 5.02004 41.9556 3.15468 40.5921ZM19.5856 21.3941C13.0313 21.2093 7.04393 24.4945 3.81436 28.1765C1.1973 31.1594 0.273131 34.3441 1.2785 36.914C2.51279 40.0701 6.46314 42.0847 12.7019 42.7413C16.0946 43.0986 18.3838 42.6524 19.7008 41.3763C20.4688 40.6331 20.932 39.6146 21.1911 38.3463C16.4016 41.2966 10.9695 41.3516 6.15224 38.4623C3.50734 36.8792 2.26609 35.2605 2.34729 33.5166C2.52903 29.5871 9.55272 26.2161 16.9871 22.6485C17.8525 22.2325 18.7233 21.8148 19.5848 21.3949L19.5856 21.3941ZM20.7479 21.8056C19.6343 22.3554 18.4982 22.9006 17.3691 23.4428C10.4947 26.7427 3.38592 30.1548 3.22815 33.5576C3.16474 34.928 4.3039 36.3286 6.60621 37.7051C11.3423 40.5457 16.7156 40.3531 21.3674 37.1816C21.6056 34.9249 21.3945 32.0449 21.1454 28.6421C20.9939 26.5726 20.826 24.2726 20.7479 21.8048V21.8056ZM21.6187 21.5643C21.6922 24.0398 21.8639 26.3777 22.0248 28.5787C22.249 31.6373 22.4424 34.29 22.307 36.4902C25.9991 33.5622 28.2728 29.1633 27.6757 25.9168C27.3022 23.8913 25.8444 22.5109 23.4617 21.92C22.8453 21.7677 22.2305 21.6501 21.618 21.5635L21.6187 21.5643Z" fill="#16282B"/><path d="M23.6641 7.42687L21.5221 6.95162C21.4967 6.94598 21.4715 6.96203 21.4659 6.98746L20.2364 12.5284C20.2308 12.5539 20.2468 12.5791 20.2723 12.5847L22.4142 13.0599C22.4397 13.0656 22.4648 13.0495 22.4705 13.0241L23.6999 7.48315C23.7056 7.45771 23.6895 7.43252 23.6641 7.42687Z" fill="#F5CA73"/><path opacity="0.1" d="M20.7199 12.6845C20.4469 12.6242 20.2744 12.3535 20.3355 12.0805L21.3664 7.43573C21.4268 7.16273 21.6974 6.99027 21.9704 7.05136C22.2434 7.11169 22.4151 7.38236 22.3548 7.65536L21.3239 12.3002C21.2636 12.5732 20.9929 12.7456 20.7199 12.6845Z" fill="#16282B"/><path opacity="0.1" d="M21.9896 12.9661C21.8133 12.9267 21.7019 12.7519 21.7406 12.5748L22.8488 7.58118C22.8883 7.40408 23.063 7.29272 23.2394 7.33216C23.4165 7.3716 23.5278 7.54638 23.4884 7.72348L22.3802 12.7171C22.3407 12.8934 22.1659 13.0056 21.9888 12.9661H21.9896Z" fill="white"/><path d="M23.5358 2.93983C21.7362 2.54077 18.6644 7.73391 19.85 7.99686C21.0348 8.2598 22.293 8.53898 22.293 8.53898C22.293 8.53898 23.5513 8.81817 24.7361 9.08111C25.9217 9.34405 25.3355 3.33889 23.5358 2.93906V2.93983Z" fill="#F5CA73"/><g style="mix-blend-mode:multiply" opacity="0.2"><path d="M19.8501 7.99699C21.0349 8.25993 22.2931 8.53911 22.2931 8.53911C22.2931 8.53911 23.5514 8.8183 24.7362 9.08124C25.0053 9.14079 25.1778 8.86857 25.2714 8.42156C22.8159 9.03561 20.5685 6.16875 22.8925 3.00879C21.1029 3.64604 18.7968 7.76266 19.8501 7.99621V7.99699Z" fill="#F5CA73"/></g><path opacity="0.3" d="M23.4323 3.40735C22.1857 3.47618 23.6759 7.1512 24.5529 7.07464C25.4291 6.99808 25.0332 3.31841 23.4323 3.40735Z" fill="#82ECFF"/><path opacity="0.3" d="M24.986 8.79673C23.8012 8.53379 22.5429 8.25461 22.5429 8.25461C22.5429 8.25461 21.2846 7.97542 20.0998 7.71248C19.3752 7.55162 20.2437 5.55093 21.4378 4.10938C20.1199 5.55557 19.0759 7.82539 19.85 7.99707C21.0348 8.26002 22.2931 8.5392 22.2931 8.5392C22.2931 8.5392 23.5514 8.81839 24.7362 9.08133C24.921 9.12232 25.0579 8.99781 25.1592 8.77817C25.1058 8.79828 25.0494 8.81065 24.986 8.79673Z" fill="#82ECFF"/><path d="M23.917 1.22079C22.1174 0.820966 19.3681 4.56173 20.5536 4.82467C21.7384 5.08761 22.9967 5.3668 22.9967 5.3668C22.9967 5.3668 24.2549 5.64598 25.4405 5.90893C26.6253 6.17187 25.7166 1.61985 23.917 1.22079Z" fill="#F5CA73"/><g style="mix-blend-mode:multiply" opacity="0.2"><path d="M20.5537 4.82494C21.7385 5.08788 22.9968 5.36707 22.9968 5.36707C22.9968 5.36707 24.255 5.64625 25.4406 5.9092C25.709 5.96874 25.8652 5.77308 25.9325 5.44208C23.5412 5.76999 21.1631 3.48857 23.2852 1.2373C21.5521 1.61857 19.5004 4.59061 20.5537 4.82417V4.82494Z" fill="#F5CA73"/></g><path opacity="0.3" d="M23.8404 1.56648C22.6131 1.55023 24.2866 4.39776 25.1481 4.38848C26.0097 4.3792 25.4165 1.58813 23.8404 1.56648Z" fill="#82ECFF"/><path opacity="0.3" d="M25.672 5.70881C24.4872 5.44587 23.2289 5.16669 23.2289 5.16669C23.2289 5.16669 21.9707 4.8875 20.7859 4.62456C20.0612 4.4637 20.8091 3.00591 21.9096 1.98584C20.6877 3.00204 19.7813 4.65317 20.5547 4.82486C21.7394 5.0878 22.9977 5.36699 22.9977 5.36699C22.9977 5.36699 24.256 5.64617 25.4415 5.90911C25.6264 5.9501 25.7547 5.86426 25.8421 5.70417C25.7903 5.71655 25.7354 5.72273 25.672 5.70881Z" fill="#82ECFF"/><path d="M24.1813 0.0288925C22.7158 -0.29592 20.5944 2.22061 21.5596 2.43483C22.5248 2.64905 23.5495 2.87642 23.5495 2.87642C23.5495 2.87642 24.5742 3.10379 25.5393 3.31801C26.5045 3.53223 25.6468 0.354479 24.1813 0.0288925Z" fill="#F5CA73"/><g style="mix-blend-mode:multiply" opacity="0.2"><path d="M21.5604 2.43527C22.5256 2.6495 23.5503 2.87686 23.5503 2.87686C23.5503 2.87686 24.575 3.10423 25.5401 3.31846C25.759 3.36718 25.8796 3.23571 25.9253 3.00834C24.0011 3.17074 22.0175 1.52657 23.6725 0.0239258C22.282 0.241241 20.7035 2.24425 21.5612 2.43527H21.5604Z" fill="#F5CA73"/></g><path opacity="0.3" d="M24.129 0.267338C23.136 0.222483 24.566 2.24096 25.2628 2.2572C25.9588 2.27422 25.4043 0.324567 24.129 0.267338Z" fill="#82ECFF"/><path opacity="0.3" d="M25.7207 3.18585C24.7555 2.97163 23.7308 2.74426 23.7308 2.74426C23.7308 2.74426 22.7061 2.51689 21.7409 2.30267C21.1508 2.17197 21.7162 1.18206 22.5777 0.505371C21.6172 1.17665 20.9289 2.29571 21.5592 2.43569C22.5243 2.64991 23.5491 2.87728 23.5491 2.87728C23.5491 2.87728 24.5738 3.10465 25.5389 3.31887C25.6897 3.35212 25.791 3.29644 25.8575 3.18817C25.8158 3.19513 25.7717 3.19822 25.7199 3.18662L25.7207 3.18585Z" fill="#82ECFF"/><g style="mix-blend-mode:multiply" opacity="0.4"><path d="M21.0635 2.84354L25.8181 3.89918C25.7686 3.6981 25.7068 3.49548 25.6348 3.29364L21.4857 2.37256C21.3349 2.52491 21.1942 2.68268 21.0635 2.84354Z" fill="#16282B"/></g><path opacity="0.3" d="M20.4429 5.42502L25.2872 6.5C25.2609 6.28578 25.2269 6.06923 25.1859 5.85269L20.8087 4.88135C20.6795 5.05999 20.5573 5.24251 20.4429 5.42502Z" fill="#16282B"/><g style="mix-blend-mode:multiply" opacity="0.4"><path d="M23.4118 8.78621L21.1777 8.29053L20.9948 9.11499L23.2289 9.61068L23.4118 8.78621Z" fill="#F5CA73"/></g><path d="M22.4584 13.248L20.1507 12.7361C19.9109 12.6827 19.7601 12.4453 19.8135 12.2063C19.8668 11.9666 20.1043 11.8158 20.3432 11.8691L22.6509 12.3811C22.8907 12.4345 23.0415 12.6719 22.9881 12.9109C22.9348 13.1506 22.6973 13.3014 22.4584 13.248Z" fill="#F5CA73"/><path opacity="0.3" d="M22.651 12.3814L20.3432 11.8694C20.1615 11.8292 19.9821 11.9073 19.8823 12.0512C19.9782 11.9901 20.0973 11.9653 20.2172 11.9924L22.5249 12.5043C22.7647 12.5577 22.9155 12.7951 22.8621 13.0341C22.8489 13.0921 22.825 13.1439 22.7925 13.1895C22.8884 13.1284 22.9611 13.031 22.9882 12.9111C23.0415 12.6714 22.8899 12.4347 22.651 12.3814Z" fill="#82ECFF"/><path opacity="0.1" d="M22.6439 13.0681L20.3362 12.5561C20.0965 12.5028 19.9457 12.2661 19.999 12.0264C20.0083 11.9838 20.03 11.9475 20.0501 11.9111C19.9348 11.9691 19.8436 12.0704 19.8134 12.2058C19.7601 12.4455 19.9116 12.6822 20.1506 12.7355L22.4583 13.2475C22.6548 13.2908 22.8442 13.1926 22.937 13.0248C22.8489 13.0696 22.7483 13.0905 22.6439 13.0673V13.0681Z" fill="#096170"/><path opacity="0.3" d="M22.5352 13.2211L20.2275 12.7092C19.9877 12.6558 19.8369 12.4192 19.8903 12.1794C19.9243 12.0263 20.0372 11.9165 20.1741 11.8662C20.0009 11.8948 19.8539 12.0248 19.8129 12.2065C19.7596 12.4462 19.9112 12.6829 20.1501 12.7362L22.4578 13.2482C22.5437 13.2675 22.6264 13.2529 22.7038 13.2242C22.6489 13.2335 22.5924 13.2335 22.5352 13.2211Z" fill="#82ECFF"/><path d="M31.7151 11.728L33.3375 13.2038C33.357 13.2215 33.3584 13.251 33.3407 13.2705L29.5216 17.4691C29.5039 17.4885 29.4744 17.4899 29.455 17.4722L27.8325 15.9964C27.813 15.9787 27.8116 15.9492 27.8293 15.9298L31.6484 11.7312C31.6661 11.7117 31.6956 11.7103 31.7151 11.728Z" fill="#F5CA73"/><path opacity="0.1" d="M28.1704 16.3052C27.9639 16.1173 27.9484 15.7971 28.1364 15.5899L31.3381 12.0703C31.526 11.8638 31.8462 11.8483 32.0534 12.0363C32.2599 12.2242 32.2754 12.5444 32.0875 12.7516L28.8857 16.2712C28.6978 16.4777 28.3776 16.4932 28.1704 16.3052Z" fill="#16282B"/><path opacity="0.1" d="M29.1336 17.1809C28.9998 17.0595 28.9897 16.8522 29.1119 16.7176L32.5541 12.9343C32.6763 12.8005 32.8836 12.7905 33.0174 12.9127C33.1512 13.0341 33.1612 13.2421 33.039 13.3759L29.5968 17.1592C29.4746 17.293 29.2673 17.3031 29.1336 17.1809Z" fill="white"/><path d="M35.4546 9.24669C34.0912 8.00621 28.8455 10.9883 29.7434 11.805C30.6412 12.6216 31.5948 13.4894 31.5948 13.4894C31.5948 13.4894 32.5483 14.3563 33.4462 15.1737C34.3441 15.9904 36.8181 10.4872 35.4546 9.24669Z" fill="#F5CA73"/><g style="mix-blend-mode:multiply" opacity="0.2"><path d="M29.7433 11.8049C30.6412 12.6215 31.5947 13.4893 31.5947 13.4893C31.5947 13.4893 32.5483 14.357 33.4461 15.1736C33.6495 15.3593 33.9357 15.2084 34.2381 14.8666C31.802 14.1806 31.2753 10.576 34.8622 8.98674C32.9922 8.6511 28.9459 11.0787 29.7441 11.8041L29.7433 11.8049Z" fill="#F5CA73"/></g><path opacity="0.3" d="M35.1331 9.60124C34.0164 9.0421 33.4851 12.9716 34.284 13.3405C35.0829 13.7094 36.5669 10.3189 35.1331 9.60124Z" fill="#82ECFF"/><path opacity="0.3" d="M33.8043 15.0502C32.9064 14.2335 31.9528 13.3658 31.9528 13.3658C31.9528 13.3658 30.9993 12.4989 30.1014 11.6814C29.5523 11.1818 31.3001 9.87717 33.0526 9.21826C31.1903 9.81917 29.1571 11.2708 29.7433 11.8044C30.6412 12.6211 31.5948 13.4888 31.5948 13.4888C31.5948 13.4888 32.5483 14.3565 33.4462 15.1732C33.5862 15.3008 33.7671 15.2606 33.9636 15.1206C33.9071 15.1113 33.8522 15.0943 33.8043 15.0502Z" fill="#82ECFF"/><path d="M36.6397 7.94446C35.2763 6.70398 31.0328 8.5848 31.9307 9.40147C32.8286 10.2181 33.7821 11.0859 33.7821 11.0859C33.7821 11.0859 34.7357 11.9528 35.6336 12.7702C36.5314 13.5877 38.0039 9.18493 36.6405 7.94446H36.6397Z" fill="#F5CA73"/><g style="mix-blend-mode:multiply" opacity="0.2"><path d="M31.9307 9.40176C32.8285 10.2184 33.7821 11.0861 33.7821 11.0861C33.7821 11.0861 34.7356 11.9531 35.6335 12.7705C35.8369 12.9561 36.0697 12.8633 36.2924 12.6097C34.0543 11.7064 33.1232 8.54565 36.0836 7.64622C34.39 7.11647 31.1333 8.67634 31.9314 9.40253L31.9307 9.40176Z" fill="#F5CA73"/></g><path opacity="0.3" d="M36.4012 8.20663C35.3441 7.58253 35.3827 10.8856 36.1352 11.3055C36.8877 11.7254 37.7593 9.00784 36.4012 8.20663Z" fill="#82ECFF"/><path opacity="0.3" d="M35.9326 12.7107C35.0347 11.894 34.0811 11.0263 34.0811 11.0263C34.0811 11.0263 33.1276 10.1594 32.2297 9.34191C31.6806 8.84232 33.0541 7.94831 34.5158 7.61035C32.9505 7.88567 31.3434 8.86784 31.9304 9.40146C32.8283 10.2181 33.7818 11.0858 33.7818 11.0858C33.7818 11.0858 34.7354 11.9528 35.6333 12.7702C35.7733 12.8978 35.9279 12.887 36.0834 12.7919C36.0323 12.7764 35.9821 12.7548 35.9333 12.7107H35.9326Z" fill="#82ECFF"/><path d="M37.4612 7.04143C36.3507 6.03141 33.2595 7.16207 33.9911 7.82716C34.7219 8.49226 35.4984 9.19834 35.4984 9.19834C35.4984 9.19834 36.2749 9.90442 37.0057 10.5703C37.7365 11.2354 38.571 8.05144 37.4612 7.04143Z" fill="#F5CA73"/><g style="mix-blend-mode:multiply" opacity="0.2"><path d="M33.9911 7.82754C34.7219 8.49263 35.4984 9.19871 35.4984 9.19871C35.4984 9.19871 36.2748 9.90479 37.0057 10.5707C37.1712 10.7215 37.3413 10.6673 37.4944 10.4926C35.7435 9.6782 34.8387 7.2653 37.0211 6.7835C35.7064 6.28159 33.3415 7.23669 33.9911 7.82754Z" fill="#F5CA73"/></g><path opacity="0.3" d="M37.2968 7.22147C36.457 6.68939 36.6959 9.15101 37.2922 9.5114C37.8885 9.87178 38.3749 7.90435 37.2968 7.22147Z" fill="#82ECFF"/><path opacity="0.3" d="M37.2289 10.5451C36.4973 9.88004 35.7216 9.17396 35.7216 9.17396C35.7216 9.17396 34.9452 8.46787 34.2144 7.80278C33.7674 7.39599 34.7495 6.81752 35.8338 6.6582C34.6668 6.76338 33.5137 7.3929 33.9916 7.82753C34.7225 8.49262 35.4989 9.1987 35.4989 9.1987C35.4989 9.1987 36.2754 9.90478 37.0062 10.5706C37.1207 10.6743 37.2367 10.6758 37.348 10.6147C37.3086 10.6 37.2691 10.5807 37.2297 10.5451H37.2289Z" fill="#82ECFF"/><g style="mix-blend-mode:multiply" opacity="0.4"><path d="M33.3569 7.93459L36.9593 11.2121C37.0157 11.0126 37.0637 10.8069 37.1008 10.5957L33.9571 7.73584C33.7506 7.79307 33.5503 7.86035 33.3569 7.93537V7.93459Z" fill="#16282B"/></g><path opacity="0.3" d="M31.5364 9.86696L35.2068 13.2063C35.2903 13.0076 35.3684 12.8019 35.4404 12.5938L32.1234 9.57617C31.9231 9.66743 31.7259 9.76487 31.5356 9.86696H31.5364Z" fill="#16282B"/><g style="mix-blend-mode:multiply" opacity="0.4"><path d="M32.4428 14.2591L30.75 12.7192L30.1817 13.344L31.8746 14.8838L32.4428 14.2591Z" fill="#F5CA73"/></g><path d="M29.3993 17.6588L27.6508 16.068C27.469 15.9033 27.4559 15.6218 27.6214 15.4408C27.7861 15.2591 28.0676 15.2459 28.2486 15.4114L29.9972 17.0015C30.1789 17.1662 30.192 17.4477 30.0265 17.6287C29.8618 17.8104 29.5803 17.8235 29.3993 17.658V17.6588Z" fill="#F5CA73"/><path opacity="0.3" d="M29.9972 17.0014L28.2486 15.4114C28.111 15.2861 27.9168 15.2645 27.7583 15.3402C27.872 15.3348 27.9872 15.3727 28.0777 15.4555L29.8263 17.0455C30.008 17.2102 30.0212 17.4917 29.8557 17.6727C29.8162 17.7168 29.769 17.7493 29.718 17.7732C29.8317 17.7678 29.9431 17.7191 30.0258 17.6286C30.1905 17.4469 30.1774 17.1662 29.9964 17.0014H29.9972Z" fill="#82ECFF"/><path opacity="0.1" d="M29.6508 17.5947L27.9022 16.0039C27.7205 15.8392 27.7073 15.5577 27.8728 15.3767C27.9022 15.3443 27.9386 15.3241 27.9741 15.3025C27.8458 15.2955 27.7158 15.3381 27.6223 15.4409C27.4575 15.6227 27.4707 15.9034 27.6517 16.0681L29.4002 17.6589C29.5495 17.7943 29.7622 17.8035 29.9261 17.7038C29.8271 17.6984 29.7297 17.6667 29.6508 17.5955V17.5947Z" fill="#096170"/><path opacity="0.3" d="M29.4796 17.6725L27.7318 16.0817C27.5501 15.917 27.5369 15.6355 27.7024 15.4545C27.8084 15.3385 27.9607 15.299 28.1046 15.3238C27.9398 15.2627 27.748 15.3021 27.6228 15.4406C27.458 15.6223 27.4712 15.903 27.6521 16.0678L29.4007 17.6586C29.4657 17.7181 29.5446 17.746 29.6258 17.7599C29.574 17.7405 29.5245 17.7127 29.4811 17.6733L29.4796 17.6725Z" fill="#82ECFF"/></g><defs><clipPath id="clip0_2133_733"><rect width="38" height="43.7445" fill="white"/></clipPath></defs></svg>